<?xml version="1.0" encoding="utf-8"?>
<!-- Generator: Adobe Illustrator 27.0.0, SVG Export Plug-In . SVG Version: 6.00 Build 0)  -->
<svg version="1.1" id="Layer_1" xmlns="http://www.w3.org/2000/svg" xmlns:xlink="http://www.w3.org/1999/xlink" x="0px" y="0px"
	 viewBox="0 0 100 100" style="enable-background:new 0 0 100 100;" xml:space="preserve">
<style type="text/css">
	.st0{enable-background:new    ;}
	.st1{fill:#FFFFFF;}
	.st2{fill-rule:evenodd;clip-rule:evenodd;fill:#FFFFFF;}
</style>
<g class="st0">
	<g>
		<g>
			<path class="st1" d="M74,5L50,37L26,5c0,0-10.6,7.4-3,18l19,25L29,65l10,7l11-14l11,14l9-6L57,48l20-28C77,20,82,11,74,5z"/>
		</g>
	</g>
</g>
<g class="st0">
	<g>
		<g>
			<path class="st2" d="M26.5,62C17.4,62,10,69.4,10,78.5S17.4,95,26.5,95S43,87.6,43,78.5S35.6,62,26.5,62z M26.5,88
				c-5.2,0-9.5-4.3-9.5-9.5s4.3-9.5,9.5-9.5s9.5,4.3,9.5,9.5S31.7,88,26.5,88z"/>
		</g>
	</g>
</g>
<g class="st0">
	<g>
		<g>
			<path class="st2" d="M72.5,62C63.4,62,56,69.4,56,78.5S63.4,95,72.5,95S89,87.6,89,78.5S81.6,62,72.5,62z M72.5,88
				c-5.2,0-9.5-4.3-9.5-9.5s4.3-9.5,9.5-9.5s9.5,4.3,9.5,9.5S77.7,88,72.5,88z"/>
		</g>
	</g>
</g>
</svg>
