<svg xmlns="http://www.w3.org/2000/svg" xmlns:xlink="http://www.w3.org/1999/xlink" version="1.1" x="0px" y="0px" viewBox="0 0 100 100" enable-background="new 0 0 100 100" xml:space="preserve"><g enable-background="new    "><g><g><path d="M74,5L50,37L26,5c0,0-10.579,7.391-3,18l19,25L29,65l10,7l11-14l11,14l9-6L57,48l20-28C77,20,82,11,74,5z"></path></g></g></g><g enable-background="new    "><g><g><path fill-rule="evenodd" clip-rule="evenodd" d="M26.5,62C17.387,62,10,69.388,10,78.5S17.387,95,26.5,95S43,87.612,43,78.5     S35.613,62,26.5,62z M26.5,88c-5.247,0-9.5-4.253-9.5-9.5s4.253-9.5,9.5-9.5s9.5,4.253,9.5,9.5S31.747,88,26.5,88z"></path></g></g></g><g enable-background="new    "><g><g><path fill-rule="evenodd" clip-rule="evenodd" d="M72.5,62C63.387,62,56,69.388,56,78.5S63.387,95,72.5,95S89,87.612,89,78.5     S81.613,62,72.5,62z M72.5,88c-5.246,0-9.5-4.253-9.5-9.5s4.254-9.5,9.5-9.5s9.5,4.253,9.5,9.5S77.746,88,72.5,88z"></path></g></g></g></svg>